<?xml version="1.0" encoding="UTF-8"?>
<svg id="NMBU_logo" xmlns="http://www.w3.org/2000/svg" viewBox="0 0 185.67 83.62">
  <defs>
    <style>
      .cls-1 {
        fill: #009a81;
      }

      .cls-1, .cls-2, .cls-3 {
        stroke-width: 0px;
      }

      .cls-3 {
        fill: none;
      }
    </style>
  </defs>
  <g>
    <polygon class="cls-1" points="23.18 63.71 18.49 56.28 16.37 56.28 16.37 67.25 18.34 67.25 18.34 59.71 23.09 67.25 25.15 67.25 25.15 56.28 23.18 56.28 23.18 63.71"/>
    <polygon class="cls-1" points="46.08 54.94 46.08 43.97 43.52 43.97 40.63 51.79 37.75 43.97 35.06 43.97 35.06 54.94 36.99 54.94 36.99 47.02 39.82 54.79 41.29 54.79 44.14 47.11 44.14 54.94 46.08 54.94"/>
    <path class="cls-1" d="m78.28,16.28v6.73c0,1.56-.71,2.63-2.31,2.63s-2.3-1.07-2.3-2.63v-6.73h-2v6.76c0,2.62,1.47,4.41,4.3,4.41s4.3-1.8,4.3-4.41v-6.76h-2Z"/>
    <path class="cls-1" d="m61.61,31.36c0-.94-.46-1.86-1.27-2.38-.74-.48-1.66-.6-2.54-.6h-4.37v10.99h4.37c1.05,0,2.07-.09,2.92-.74.79-.6,1.11-1.49,1.11-2.46s-.54-2-1.58-2.48c.93-.42,1.35-1.42,1.35-2.32Zm-6.19-1.27h2.46c.9,0,1.7.34,1.7,1.39s-.76,1.36-1.66,1.36h-2.51v-2.75Zm2.46,7.48h-2.46v-3.05h2.52c1.05,0,1.87.42,1.87,1.59,0,1.12-1.01,1.46-1.94,1.46Z"/>
    <path class="cls-1" d="m72.36,49.11h-14.36v-4.86h-1.91v4.86h-4.89v1.91h4.89v14.36h-24.15v1.91h25.11c.53,0,.96-.43.96-.96v-15.32h15.32c.53,0,.96-.43.96-.96v-17.81h-1.91v16.86Z"/>
    <path class="cls-1" d="m39.62,39.4h1.91v-4.84h4.8v-1.91h-4.8v-14.36h23.94v-1.91h-24.89c-.53,0-.96.43-.96.96v15.32h-15.32c-.53,0-.96.43-.96.96v17.91h1.92v-16.95h14.36v4.84Z"/>
  </g>
  <g>
    <path class="cls-2" d="m100.99,32.65l-3.15-4.83v4.83h-1.08v-6.37h1.38l2.89,4.52v-4.52h1.08v6.37h-1.12Z"/>
    <path class="cls-2" d="m107.83,30.46c0,1.35-.96,2.33-2.27,2.33s-2.26-.98-2.26-2.33.96-2.32,2.26-2.32,2.27.98,2.27,2.32Zm-1.05,0c0-.91-.58-1.38-1.22-1.38s-1.22.47-1.22,1.38.58,1.39,1.22,1.39,1.22-.48,1.22-1.39Z"/>
    <path class="cls-2" d="m111.49,29.3c-.12-.02-.23-.03-.34-.03-.81,0-1.18.47-1.18,1.29v2.08h-1.04v-4.38h1.02v.7c.21-.48.69-.75,1.27-.75.13,0,.23.02.28.03v1.06Z"/>
    <path class="cls-2" d="m113.05,32.64c.07.54.49.94,1.1.94.83,0,1.24-.42,1.24-1.31v-.46c-.19.34-.63.64-1.27.64-1.17,0-2.02-.9-2.02-2.13,0-1.17.82-2.13,2.02-2.13.68,0,1.11.28,1.29.64v-.56h1.01v3.96c0,1.17-.6,2.26-2.25,2.26-1.16,0-1.97-.72-2.08-1.6l.96-.25Zm2.36-2.32c0-.75-.48-1.23-1.12-1.23s-1.14.49-1.14,1.23.46,1.24,1.14,1.24,1.12-.49,1.12-1.24Z"/>
    <path class="cls-2" d="m121.66,31.4c-.23.76-.93,1.38-1.98,1.38-1.19,0-2.24-.86-2.24-2.35,0-1.38,1.02-2.3,2.13-2.3,1.35,0,2.14.89,2.14,2.27,0,.17-.02.32-.03.33h-3.2c.03.66.55,1.14,1.2,1.14s.95-.33,1.1-.76l.88.28Zm-1-1.42c-.02-.51-.36-.97-1.08-.97-.66,0-1.03.5-1.07.97h2.15Z"/>
    <path class="cls-2" d="m123.33,31.21c.04.39.33.75.89.75.43,0,.66-.23.66-.5,0-.23-.16-.41-.51-.49l-.65-.14c-.77-.17-1.18-.67-1.18-1.28,0-.76.7-1.41,1.61-1.41,1.22,0,1.62.79,1.69,1.22l-.88.25c-.04-.25-.22-.66-.81-.66-.37,0-.63.23-.63.5,0,.23.17.4.44.46l.66.13c.83.18,1.26.68,1.26,1.33s-.54,1.4-1.65,1.4c-1.27,0-1.75-.83-1.81-1.32l.91-.25Z"/>
    <path class="cls-2" d="m129.32,32.65v-4.38h1v.56c.25-.45.8-.68,1.29-.68.58,0,1.08.26,1.31.77.34-.58.85-.77,1.42-.77.79,0,1.55.5,1.55,1.66v2.84h-1.01v-2.67c0-.51-.26-.9-.84-.9-.55,0-.91.43-.91.97v2.6h-1.02v-2.67c0-.5-.25-.9-.84-.9-.56,0-.91.41-.91.97v2.6h-1.03Z"/>
    <path class="cls-2" d="m137.77,26.05c.38,0,.68.31.68.68s-.31.67-.68.67-.67-.3-.67-.67.3-.68.67-.68Zm-.51,6.6v-4.38h1.03v4.38h-1.03Z"/>
    <path class="cls-2" d="m139.73,32.65v-6.51h1.04v6.51h-1.04Z"/>
    <path class="cls-2" d="m142.22,28.27h1.04v4.82c0,.82-.49,1.4-1.3,1.4-.35,0-.55-.06-.59-.08v-.86s.2.03.31.03c.4,0,.54-.21.54-.57v-4.74Zm.51-2.23c.38,0,.68.31.68.68s-.31.67-.68.67-.67-.31-.67-.67.3-.68.67-.68Z"/>
    <path class="cls-2" d="m147.78,28.43l.47-.58.56.46-.47.58c.35.4.56.95.56,1.56,0,1.35-.96,2.33-2.27,2.33-.45,0-.82-.11-1.13-.29l-.45.57-.57-.46.45-.57c-.36-.4-.57-.95-.57-1.58,0-1.34.96-2.32,2.26-2.32.43,0,.83.11,1.16.3Zm-2.21,2.79l1.6-2.01c-.17-.08-.36-.13-.55-.13-.64,0-1.22.47-1.22,1.38,0,.31.06.56.17.76Zm2.27-.76c0-.29-.06-.54-.16-.74l-1.59,2.01c.16.08.34.12.53.12.65,0,1.22-.48,1.22-1.39Z"/>
    <path class="cls-2" d="m149.72,30.48v-.93h2.53v.93h-2.53Z"/>
    <path class="cls-2" d="m159.5,30.46c0,1.35-.96,2.33-2.27,2.33s-2.26-.98-2.26-2.33.96-2.32,2.26-2.32,2.27.98,2.27,2.32Zm-1.05,0c0-.91-.58-1.38-1.22-1.38s-1.22.47-1.22,1.38.58,1.39,1.22,1.39,1.22-.48,1.22-1.39Z"/>
    <path class="cls-2" d="m161.24,32.64c.07.54.49.94,1.1.94.83,0,1.24-.42,1.24-1.31v-.46c-.19.34-.63.64-1.27.64-1.17,0-2.02-.9-2.02-2.13,0-1.17.82-2.13,2.02-2.13.68,0,1.11.28,1.29.64v-.56h1.01v3.96c0,1.17-.6,2.26-2.25,2.26-1.16,0-1.97-.72-2.08-1.6l.96-.25Zm2.36-2.32c0-.75-.48-1.23-1.12-1.23s-1.14.49-1.14,1.23.46,1.24,1.14,1.24,1.12-.49,1.12-1.24Z"/>
    <path class="cls-2" d="m96.68,44.64v-6.51h1.02v2.67c.2-.34.7-.66,1.38-.66,1.31,0,2.02,1,2.02,2.28s-.78,2.32-2.06,2.32c-.62,0-1.1-.27-1.35-.69v.58h-1.02Zm2.19-3.57c-.66,0-1.18.5-1.18,1.37s.51,1.38,1.18,1.38,1.18-.52,1.18-1.38-.49-1.37-1.18-1.37Z"/>
    <path class="cls-2" d="m102.71,38.04c.38,0,.68.31.68.68s-.31.67-.68.67-.67-.3-.67-.67.3-.68.67-.68Zm-.51,6.6v-4.38h1.03v4.38h-1.03Z"/>
    <path class="cls-2" d="m108.87,42.44c0,1.35-.96,2.33-2.27,2.33s-2.26-.98-2.26-2.33.96-2.32,2.26-2.32,2.27.98,2.27,2.32Zm-1.05,0c0-.91-.58-1.38-1.22-1.38s-1.22.47-1.22,1.38.58,1.39,1.22,1.39,1.22-.48,1.22-1.39Z"/>
    <path class="cls-2" d="m112.07,44.64h-1.04l-1.78-4.38h1.15l1.16,3.13,1.13-3.13h1.1l-1.72,4.38Z"/>
    <path class="cls-2" d="m115.15,38.04c.38,0,.68.31.68.68s-.31.67-.68.67-.67-.3-.67-.67.3-.68.67-.68Zm-.51,6.6v-4.38h1.03v4.38h-1.03Z"/>
    <path class="cls-2" d="m118.44,40.26h.91v.93h-.91v2.03c0,.39.17.55.56.55.14,0,.31-.03.36-.04v.86c-.06.03-.26.1-.64.1-.81,0-1.31-.49-1.31-1.3v-2.2h-.81v-.93h.23c.47,0,.67-.3.67-.68v-.66h.94v1.34Z"/>
    <path class="cls-2" d="m124.33,43.39c-.23.76-.93,1.38-1.98,1.38-1.19,0-2.24-.86-2.24-2.35,0-1.38,1.02-2.3,2.13-2.3,1.35,0,2.14.89,2.14,2.27,0,.17-.02.32-.03.33h-3.2c.03.66.55,1.14,1.2,1.14s.95-.33,1.1-.76l.88.28Zm-1-1.42c-.02-.51-.36-.97-1.08-.97-.66,0-1.03.5-1.07.97h2.15Z"/>
    <path class="cls-2" d="m126.52,44.64h-1.04v-4.38h1.02v.58c.29-.5.81-.71,1.29-.71,1.07,0,1.58.77,1.58,1.73v2.77h-1.04v-2.59c0-.54-.24-.97-.9-.97-.59,0-.91.46-.91,1.03v2.53Z"/>
    <path class="cls-2" d="m131.25,43.2c.04.4.33.75.89.75.43,0,.66-.23.66-.5,0-.23-.16-.41-.51-.49l-.65-.14c-.77-.17-1.18-.67-1.18-1.28,0-.76.7-1.41,1.61-1.41,1.22,0,1.62.79,1.69,1.22l-.88.25c-.04-.25-.22-.66-.81-.66-.37,0-.63.23-.63.5,0,.23.17.4.44.46l.66.13c.83.18,1.26.68,1.26,1.33s-.54,1.4-1.65,1.4c-1.27,0-1.75-.83-1.81-1.32l.91-.25Z"/>
    <path class="cls-2" d="m137.23,42.11l1.83,2.53h-1.28l-1.29-1.79-.54.57v1.22h-1.03v-6.51h1.03v3.9l1.68-1.77h1.38l-1.8,1.85Z"/>
    <path class="cls-2" d="m140.84,42.13l1.12-.17c.25-.04.32-.16.32-.31,0-.37-.25-.67-.83-.67s-.85.35-.9.79l-.95-.22c.08-.75.76-1.43,1.84-1.43,1.35,0,1.86.76,1.86,1.64v2.17c0,.4.04.66.05.7h-.97s-.04-.21-.04-.56c-.21.33-.64.69-1.35.69-.92,0-1.48-.63-1.48-1.32,0-.78.58-1.21,1.32-1.32Zm1.45.69v-.2l-1.14.17c-.32.05-.58.23-.58.59,0,.3.22.57.64.57.58,0,1.09-.28,1.09-1.13Z"/>
    <path class="cls-2" d="m144.66,46.34v-6.09h1.01v.59c.22-.38.72-.69,1.39-.69,1.29,0,2.02.99,2.02,2.28s-.8,2.3-2.06,2.3c-.63,0-1.11-.27-1.33-.6v2.2h-1.03Zm2.2-5.26c-.68,0-1.18.54-1.18,1.36s.5,1.38,1.18,1.38,1.18-.54,1.18-1.38-.48-1.36-1.18-1.36Z"/>
    <path class="cls-2" d="m154.06,43.39c-.23.76-.93,1.38-1.98,1.38-1.19,0-2.24-.86-2.24-2.35,0-1.38,1.02-2.3,2.13-2.3,1.35,0,2.14.89,2.14,2.27,0,.17-.02.32-.03.33h-3.2c.03.66.55,1.14,1.2,1.14s.95-.33,1.1-.76l.88.28Zm-1-1.42c-.02-.51-.36-.97-1.08-.97-.66,0-1.03.5-1.07.97h2.15Z"/>
    <path class="cls-2" d="m155.2,44.64v-6.51h1.04v6.51h-1.04Z"/>
    <path class="cls-2" d="m158.19,38.04c.38,0,.68.31.68.68s-.31.67-.68.67-.67-.3-.67-.67.3-.68.67-.68Zm-.51,6.6v-4.38h1.03v4.38h-1.03Z"/>
    <path class="cls-2" d="m160.8,44.63c.07.54.49.94,1.1.94.83,0,1.24-.42,1.24-1.31v-.46c-.19.34-.63.64-1.27.64-1.17,0-2.02-.9-2.02-2.13,0-1.17.82-2.13,2.02-2.13.68,0,1.11.28,1.29.64v-.56h1.01v3.96c0,1.17-.6,2.26-2.25,2.26-1.16,0-1.97-.72-2.08-1.6l.96-.25Zm2.36-2.32c0-.75-.48-1.23-1.12-1.23s-1.14.49-1.14,1.23.46,1.24,1.14,1.24,1.12-.49,1.12-1.24Z"/>
    <path class="cls-2" d="m169.41,43.39c-.23.76-.93,1.38-1.98,1.38-1.19,0-2.24-.86-2.24-2.35,0-1.38,1.02-2.3,2.13-2.3,1.35,0,2.14.89,2.14,2.27,0,.17-.02.32-.03.33h-3.2c.03.66.55,1.14,1.2,1.14s.95-.33,1.1-.76l.88.28Zm-1-1.42c-.02-.51-.36-.97-1.08-.97-.66,0-1.03.5-1.07.97h2.15Z"/>
    <path class="cls-2" d="m98.29,56.75c-1.04,0-1.65-.77-1.65-1.74v-2.76h1.04v2.57c0,.54.25,1,.88,1s.92-.4.92-.98v-2.59h1.04v3.58c0,.36.03.64.04.8h-1c-.02-.1-.04-.31-.04-.49-.22.4-.73.61-1.24.61Z"/>
    <path class="cls-2" d="m103,56.62h-1.04v-4.38h1.02v.58c.29-.5.81-.71,1.29-.71,1.07,0,1.58.77,1.58,1.73v2.77h-1.04v-2.59c0-.54-.24-.97-.9-.97-.59,0-.91.46-.91,1.03v2.53Z"/>
    <path class="cls-2" d="m107.72,50.03c.38,0,.68.31.68.68s-.31.67-.68.67-.67-.3-.67-.67.3-.68.67-.68Zm-.51,6.6v-4.38h1.03v4.38h-1.03Z"/>
    <path class="cls-2" d="m111.92,56.62h-1.04l-1.78-4.38h1.15l1.16,3.13,1.13-3.13h1.1l-1.72,4.38Z"/>
    <path class="cls-2" d="m118.23,55.37c-.23.76-.93,1.38-1.98,1.38-1.19,0-2.24-.86-2.24-2.35,0-1.38,1.02-2.3,2.13-2.3,1.35,0,2.14.89,2.14,2.27,0,.17-.02.32-.03.33h-3.2c.03.66.55,1.14,1.2,1.14s.95-.33,1.1-.76l.88.28Zm-1-1.42c-.02-.51-.36-.97-1.08-.97-.66,0-1.03.5-1.07.97h2.15Z"/>
    <path class="cls-2" d="m121.93,53.28c-.12-.02-.23-.03-.34-.03-.81,0-1.18.47-1.18,1.29v2.08h-1.04v-4.38h1.02v.7c.21-.48.69-.75,1.27-.75.13,0,.23.02.28.03v1.06Z"/>
    <path class="cls-2" d="m123.42,55.19c.04.39.33.75.89.75.43,0,.66-.23.66-.5,0-.23-.16-.41-.51-.49l-.65-.14c-.77-.17-1.18-.67-1.18-1.28,0-.76.7-1.41,1.61-1.41,1.22,0,1.62.79,1.69,1.22l-.88.25c-.04-.25-.22-.66-.81-.66-.37,0-.63.23-.63.5,0,.23.17.4.44.46l.67.13c.83.18,1.26.68,1.26,1.33s-.54,1.4-1.65,1.4c-1.27,0-1.75-.83-1.81-1.32l.91-.25Z"/>
    <path class="cls-2" d="m127.61,50.03c.38,0,.68.31.68.68s-.31.67-.68.67-.67-.3-.67-.67.3-.68.67-.68Zm-.51,6.6v-4.38h1.03v4.38h-1.03Z"/>
    <path class="cls-2" d="m130.9,52.25h.91v.93h-.91v2.03c0,.39.17.55.56.55.14,0,.31-.03.36-.04v.86c-.06.03-.26.1-.64.1-.81,0-1.31-.49-1.31-1.3v-2.2h-.81v-.93h.23c.47,0,.67-.3.67-.68v-.66h.94v1.34Z"/>
    <path class="cls-2" d="m136.79,55.37c-.23.76-.93,1.38-1.98,1.38-1.19,0-2.24-.86-2.24-2.35,0-1.38,1.02-2.3,2.13-2.3,1.35,0,2.14.89,2.14,2.27,0,.17-.02.32-.03.33h-3.2c.03.66.55,1.14,1.2,1.14s.95-.33,1.1-.76l.88.28Zm-1-1.42c-.02-.51-.36-.97-1.08-.97-.66,0-1.03.5-1.07.97h2.15Z"/>
    <path class="cls-2" d="m139.26,52.25h.91v.93h-.91v2.03c0,.39.17.55.56.55.14,0,.31-.03.36-.04v.86c-.06.03-.26.1-.64.1-.81,0-1.31-.49-1.31-1.3v-2.2h-.81v-.93h.23c.47,0,.67-.3.67-.68v-.66h.94v1.34Z"/>
  </g>
  <rect class="cls-3" width="185.67" height="83.62"/>
</svg>